<svg width="30" height="30" viewBox="0 0 30 30" fill="none" xmlns="http://www.w3.org/2000/svg">
<g clip-path="url(#clip0_644_1816)">
<path d="M27.1875 0.117188H2.8125C2.09766 0.117188 1.4121 0.401157 0.906626 0.906626C0.401157 1.4121 0.117188 2.09766 0.117188 2.8125V21.0938C0.117188 21.8086 0.401157 22.4942 0.906626 22.9996C1.4121 23.5051 2.09766 23.7891 2.8125 23.7891H5.53125L7.67297 29.3569C7.73236 29.5117 7.83732 29.6449 7.97398 29.7389C8.11065 29.8328 8.27259 29.8831 8.43844 29.8831C8.60428 29.8831 8.76623 29.8328 8.90289 29.7389C9.03956 29.6449 9.14451 29.5117 9.20391 29.3569L11.3438 23.7891H27.1875C27.9023 23.7891 28.5879 23.5051 29.0934 22.9996C29.5988 22.4942 29.8828 21.8086 29.8828 21.0938V2.8125C29.8828 2.09766 29.5988 1.4121 29.0934 0.906626C28.5879 0.401157 27.9023 0.117188 27.1875 0.117188Z" fill="white"/>
<path d="M19.1016 9.02344V7.03125C19.1016 6.06777 18.7188 5.14375 18.0375 4.46246C17.3563 3.78118 16.4322 3.39844 15.4688 3.39844C15.361 3.39838 15.2543 3.41955 15.1548 3.46075C15.0552 3.50196 14.9647 3.56238 14.8886 3.63856C14.8124 3.71475 14.752 3.8052 14.7108 3.90476C14.6696 4.00431 14.6484 4.11101 14.6484 4.21875C14.6484 5.36014 14.4431 6.49222 14.0423 7.56094L13.4939 9.02344H9.96094V19.1016H13.2755C13.9981 19.7096 14.9129 20.0418 15.8573 20.0391H21.375C21.998 20.039 22.6018 19.8232 23.0837 19.4282C23.5655 19.0332 23.8956 18.4834 24.0178 17.8725L25.1428 12.2475C25.221 11.8565 25.2115 11.453 25.115 11.066C25.0184 10.6791 24.8372 10.3185 24.5844 10.0101C24.3316 9.70165 24.0135 9.45319 23.653 9.28258C23.2926 9.11196 22.8988 9.02346 22.5 9.02344H19.1016Z" fill="#F5B7A6"/>
<path d="M10.7812 7.61719H5.625C5.17195 7.61719 4.80469 7.98445 4.80469 8.4375V19.6875C4.80469 20.1405 5.17195 20.5078 5.625 20.5078H10.7812C11.2343 20.5078 11.6016 20.1405 11.6016 19.6875V8.4375C11.6016 7.98445 11.2343 7.61719 10.7812 7.61719Z" fill="#2DB155"/>
</g>
<defs>
<clipPath id="clip0_644_1816">
<rect width="30" height="30" fill="white"/>
</clipPath>
</defs>
</svg>
