<svg width="33" height="32" viewBox="0 0 33 32" fill="none" xmlns="http://www.w3.org/2000/svg">
<path d="M15.5667 1.7928C16.0802 0.735732 16.9195 0.735732 17.433 1.7928L20.827 8.78057C21.3404 9.83714 22.7002 10.8407 23.8482 11.0103L31.4366 12.1309C32.5847 12.3 32.8441 13.1119 32.0136 13.9349L26.522 19.3743C25.6909 20.1967 25.1721 21.8206 25.368 22.9822L26.6647 30.6624C26.8602 31.824 26.1813 32.3258 25.1543 31.7775L18.3669 28.151C17.3405 27.6027 15.6597 27.6027 14.6333 28.151L7.84588 31.7775C6.81894 32.3263 6.13956 31.8245 6.33599 30.6624L7.63222 22.9822C7.82865 21.8206 7.30927 20.1972 6.47826 19.3743L0.986603 13.9349C0.155593 13.1114 0.41553 12.3 1.56358 12.1309L9.15197 11.0103C10.3 10.8407 11.6598 9.83714 12.1727 8.78057L15.5667 1.7928Z" fill="url(#paint0_linear_644_1948)"/>
<path d="M31.4522 11.9747L23.9749 10.8698C22.8436 10.7026 21.5038 9.71315 20.9979 8.67141L17.6536 1.78168C17.1476 0.73944 16.3205 0.73944 15.8146 1.78168L12.4703 8.67141C11.9648 9.71315 10.625 10.7026 9.49375 10.8698L7.5 11.1648C11.2852 14.6383 17.9495 18.7313 27.8494 17.8883L32.0207 13.7539C32.8391 12.942 32.5834 12.1414 31.4522 11.9747Z" fill="url(#paint1_linear_644_1948)"/>
<defs>
<linearGradient id="paint0_linear_644_1948" x1="16.5001" y1="32.0001" x2="16.5001" y2="0.999874" gradientUnits="userSpaceOnUse">
<stop stop-color="#E6B400"/>
<stop offset="0.2047" stop-color="#E4AF00"/>
<stop offset="0.4426" stop-color="#DFA100"/>
<stop offset="0.6971" stop-color="#D68A00"/>
<stop offset="0.9616" stop-color="#CA6900"/>
<stop offset="1" stop-color="#C86400"/>
</linearGradient>
<linearGradient id="paint1_linear_644_1948" x1="20" y1="17.9998" x2="20" y2="0.999876" gradientUnits="userSpaceOnUse">
<stop stop-color="#E6B400"/>
<stop offset="0.2047" stop-color="#E4AF00"/>
<stop offset="0.4426" stop-color="#DFA100"/>
<stop offset="0.6971" stop-color="#D68A00"/>
<stop offset="0.9616" stop-color="#CA6900"/>
<stop offset="1" stop-color="#C86400"/>
</linearGradient>
</defs>
</svg>
