<svg width="48" height="48" viewBox="0 0 48 48" fill="none" xmlns="http://www.w3.org/2000/svg">
<rect width="48" height="48" rx="6" fill="#6A8E9C"/>
<path d="M14.3013 22.6955C14.6666 23.0598 15.2381 23.093 15.6409 22.7949L15.7563 22.6955L24 14.473L32.2437 22.6955C32.609 23.0598 33.1805 23.093 33.5833 22.7949L33.6987 22.6955C34.0639 22.3313 34.0971 21.7612 33.7983 21.3595L33.6987 21.2444L24.7275 12.2966C24.3622 11.9323 23.7907 11.8992 23.3879 12.1973L23.2725 12.2966L14.3013 21.2444C13.8996 21.6451 13.8996 22.2948 14.3013 22.6955Z" fill="white"/>
<path d="M14.3013 34.6682C14.6666 35.0656 15.2381 35.1018 15.6409 34.7766L15.7563 34.6682L24 25.6982L32.2437 34.6682C32.609 35.0656 33.1805 35.1018 33.5833 34.7766L33.6987 34.6682C34.0639 34.2708 34.0971 33.6489 33.7983 33.2107L33.6987 33.0852L24.7275 23.324C24.3622 22.9265 23.7907 22.8904 23.3879 23.2156L23.2725 23.324L14.3013 33.0852C13.8996 33.5223 13.8996 34.2311 14.3013 34.6682Z" fill="white"/>
</svg>
